<svg version="1.1" id="Layer_1" xmlns="http://www.w3.org/2000/svg" xmlns:xlink="http://www.w3.org/1999/xlink" x="0px" y="0px"
	 width="100%" viewBox="0 0 529 538" xml:space="preserve">
<path fill="#FFFEFD" opacity="1.000000" stroke="none" 
	d="
M19.247467,283.750458 
	C9.996703,274.500336 9.996876,274.500519 18.975113,265.522186 
	C99.914322,184.582458 180.855438,103.644638 261.774811,22.685087 
	C263.055450,21.403828 264.068970,19.855589 265.400543,18.190083 
	C267.102966,19.762108 268.202209,20.708612 269.225128,21.731472 
	C352.169281,104.671387 435.100250,187.624542 518.080750,270.528076 
	C520.623352,273.068298 522.051147,274.640961 518.663574,278.020050 
	C435.145569,361.327850 351.749237,444.757660 268.328461,528.162964 
	C267.641602,528.849731 266.917297,529.498901 265.926025,530.434021 
	C183.665009,448.171448 101.581253,366.086182 19.247467,283.750458 
M238.574448,59.074440 
	C166.844162,130.802078 95.113861,202.529709 23.902426,273.738495 
	C105.106430,354.939331 185.904861,435.734589 266.568512,516.395081 
	C346.977844,435.898987 427.747192,355.042542 508.070038,274.633026 
	C427.556213,194.023453 346.792603,113.163803 265.669495,31.944195 
	C256.923187,40.702103 247.998856,49.638306 238.574448,59.074440 
z"/>
<path fill="#FF8A41" opacity="1.000000" stroke="none" 
	d="
M238.824478,58.824471 
	C247.998856,49.638306 256.923187,40.702103 265.669495,31.944195 
	C346.792603,113.163803 427.556213,194.023453 508.070038,274.633026 
	C427.747192,355.042542 346.977844,435.898987 266.568512,516.395081 
	C185.904861,435.734589 105.106430,354.939331 23.902426,273.738495 
	C95.113861,202.529709 166.844162,130.802078 238.824478,58.824471 
M400.767029,336.236603 
	C415.566223,303.622772 418.516998,269.856354 409.341187,235.350922 
	C387.732819,154.092957 302.202271,107.167259 221.712524,132.050812 
	C146.643082,155.258667 102.192230,235.648285 122.481987,311.509766 
	C141.699692,383.362915 209.625381,430.074310 283.164948,420.970612 
	C337.177551,414.284210 376.030090,385.436432 400.767029,336.236603 
z"/>
<path fill="#FFFCFA" opacity="1.000000" stroke="none" 
	d="
M400.578247,336.564331 
	C376.030090,385.436432 337.177551,414.284210 283.164948,420.970612 
	C209.625381,430.074310 141.699692,383.362915 122.481987,311.509766 
	C102.192230,235.648285 146.643082,155.258667 221.712524,132.050812 
	C302.202271,107.167259 387.732819,154.092957 409.341187,235.350922 
	C418.516998,269.856354 415.566223,303.622772 400.578247,336.564331 
M394.911835,327.323975 
	C405.984955,300.509949 408.241791,272.819580 402.387146,244.556366 
	C390.461304,186.984375 341.170197,141.964325 282.702179,135.671570 
	C247.721252,131.906677 215.020447,138.704727 186.555496,159.510086 
	C139.577316,193.846985 119.759468,240.569031 129.015854,298.198120 
	C141.019394,372.930695 214.629959,427.062286 294.441956,410.271454 
	C341.646179,400.340576 374.820801,372.011810 394.911835,327.323975 
z"/>
<path fill="#FF8941" opacity="1.000000" stroke="none" 
	d="
M394.757782,327.675262 
	C374.820801,372.011810 341.646179,400.340576 294.441956,410.271454 
	C214.629959,427.062286 141.019394,372.930695 129.015854,298.198120 
	C119.759468,240.569031 139.577316,193.846985 186.555496,159.510086 
	C215.020447,138.704727 247.721252,131.906677 282.702179,135.671570 
	C341.170197,141.964325 390.461304,186.984375 402.387146,244.556366 
	C408.241791,272.819580 405.984955,300.509949 394.757782,327.675262 
M350.024475,268.876770 
	C350.024475,281.449005 350.024475,294.021271 350.024475,306.677338 
	C356.182739,306.677338 360.907623,306.677338 365.868500,306.677338 
	C365.868500,293.224396 366.373871,280.071320 365.721680,266.975922 
	C365.109924,254.692764 355.752441,247.862091 343.487457,250.562637 
	C338.431152,251.675964 333.838440,254.894760 328.804565,257.264313 
	C321.371155,248.022919 305.539093,246.767487 295.114380,257.983826 
	C294.274292,255.723663 293.475769,253.575348 292.718994,251.539398 
	C288.839722,251.539398 285.118958,251.539398 281.478516,251.539398 
	C281.478516,270.201508 281.478516,288.436890 281.478516,306.627899 
	C286.579071,306.627899 291.318085,306.627899 296.322662,306.627899 
	C296.322662,299.100800 296.084930,291.936890 296.399963,284.797424 
	C296.640381,279.349426 297.106689,273.820404 298.353333,268.535217 
	C299.445435,263.905304 303.511688,262.180450 308.066101,262.385651 
	C312.623444,262.591003 314.838806,265.595215 315.484650,269.796173 
	C315.861481,272.247162 315.955231,274.759491 315.968445,277.245361 
	C316.020325,287.018677 315.989685,296.792419 315.989685,306.685547 
	C321.272247,306.685547 325.995087,306.685547 331.100891,306.685547 
	C331.100891,297.407440 330.945129,288.439087 331.177185,279.480804 
	C331.270599,275.874817 331.853271,272.185669 332.861877,268.723358 
	C334.130737,264.367432 337.762604,262.525482 342.073730,262.373962 
	C346.009460,262.235596 348.691956,264.232727 350.024475,268.876770 
M166.905838,302.524017 
	C175.614960,310.767700 186.093231,310.007996 198.892685,300.204803 
	C203.486389,307.807343 204.251022,308.151550 212.748505,306.271942 
	C212.748505,293.212158 212.987305,280.087555 212.640717,266.978424 
	C212.483887,261.046112 209.670120,255.814484 204.072906,253.216797 
	C192.036331,247.630585 180.278717,249.637024 168.156464,255.059891 
	C170.081177,258.847687 171.693604,262.020874 173.290466,265.163483 
	C176.033569,264.272003 178.208420,263.444794 180.448227,262.871094 
	C182.693085,262.296143 184.986191,261.826050 187.287094,261.568848 
	C194.684448,260.741882 197.974121,264.126984 197.211853,271.945923 
	C192.147705,272.306488 187.018524,272.545441 181.916840,273.057922 
	C164.816437,274.775818 157.842163,287.837219 166.905838,302.524017 
M228.082596,263.783630 
	C227.121399,270.624634 225.100906,277.515625 225.420959,284.296173 
	C226.073853,298.127533 233.214340,305.877289 245.599503,307.636749 
	C249.507095,308.191925 253.610687,308.152069 257.533539,307.659485 
	C267.068115,306.462219 268.112396,305.051788 268.046326,295.435242 
	C268.037781,294.190491 267.902832,292.946594 267.814758,291.512146 
	C259.790466,294.609955 251.402634,299.599030 244.432648,292.087677 
	C238.401291,285.587830 239.217285,276.446930 242.651031,268.932281 
	C247.791290,257.682953 257.362976,264.097504 265.429810,265.100616 
	C265.931183,264.008057 266.385376,263.129059 266.746887,262.213409 
	C270.347382,253.093979 270.064667,252.597076 260.422455,250.953888 
	C244.960114,248.318832 234.938644,252.124191 228.082596,263.783630 
z"/>
<path fill="#FFFDFC" opacity="1.000000" stroke="none" 
	d="
M349.948792,268.475800 
	C348.691956,264.232727 346.009460,262.235596 342.073730,262.373962 
	C337.762604,262.525482 334.130737,264.367432 332.861877,268.723358 
	C331.853271,272.185669 331.270599,275.874817 331.177185,279.480804 
	C330.945129,288.439087 331.100891,297.407440 331.100891,306.685547 
	C325.995087,306.685547 321.272247,306.685547 315.989685,306.685547 
	C315.989685,296.792419 316.020325,287.018677 315.968445,277.245361 
	C315.955231,274.759491 315.861481,272.247162 315.484650,269.796173 
	C314.838806,265.595215 312.623444,262.591003 308.066101,262.385651 
	C303.511688,262.180450 299.445435,263.905304 298.353333,268.535217 
	C297.106689,273.820404 296.640381,279.349426 296.399963,284.797424 
	C296.084930,291.936890 296.322662,299.100800 296.322662,306.627899 
	C291.318085,306.627899 286.579071,306.627899 281.478516,306.627899 
	C281.478516,288.436890 281.478516,270.201508 281.478516,251.539398 
	C285.118958,251.539398 288.839722,251.539398 292.718994,251.539398 
	C293.475769,253.575348 294.274292,255.723663 295.114380,257.983826 
	C305.539093,246.767487 321.371155,248.022919 328.804565,257.264313 
	C333.838440,254.894760 338.431152,251.675964 343.487457,250.562637 
	C355.752441,247.862091 365.109924,254.692764 365.721680,266.975922 
	C366.373871,280.071320 365.868500,293.224396 365.868500,306.677338 
	C360.907623,306.677338 356.182739,306.677338 350.024475,306.677338 
	C350.024475,294.021271 350.024475,281.449005 349.948792,268.475800 
z"/>
<path fill="#FFFCFB" opacity="1.000000" stroke="none" 
	d="
M166.661942,302.241028 
	C157.842163,287.837219 164.816437,274.775818 181.916840,273.057922 
	C187.018524,272.545441 192.147705,272.306488 197.211853,271.945923 
	C197.974121,264.126984 194.684448,260.741882 187.287094,261.568848 
	C184.986191,261.826050 182.693085,262.296143 180.448227,262.871094 
	C178.208420,263.444794 176.033569,264.272003 173.290466,265.163483 
	C171.693604,262.020874 170.081177,258.847687 168.156464,255.059891 
	C180.278717,249.637024 192.036331,247.630585 204.072906,253.216797 
	C209.670120,255.814484 212.483887,261.046112 212.640717,266.978424 
	C212.987305,280.087555 212.748505,293.212158 212.748505,306.271942 
	C204.251022,308.151550 203.486389,307.807343 198.892685,300.204803 
	C186.093231,310.007996 175.614960,310.767700 166.661942,302.241028 
M185.897690,282.072052 
	C184.963745,282.411133 183.988281,282.666199 183.102936,283.103607 
	C178.952728,285.154083 178.037109,288.808197 179.146423,292.786957 
	C180.249481,296.743195 183.826492,297.141510 187.276962,296.844849 
	C195.194229,296.164093 199.178146,289.800995 196.926865,280.939941 
	C193.578400,281.276031 190.148697,281.620300 185.897690,282.072052 
z"/>
<path fill="#FFFCFB" opacity="1.000000" stroke="none" 
	d="
M228.250366,263.445129 
	C234.938644,252.124191 244.960114,248.318832 260.422455,250.953888 
	C270.064667,252.597076 270.347382,253.093979 266.746887,262.213409 
	C266.385376,263.129059 265.931183,264.008057 265.429810,265.100616 
	C257.362976,264.097504 247.791290,257.682953 242.651031,268.932281 
	C239.217285,276.446930 238.401291,285.587830 244.432648,292.087677 
	C251.402634,299.599030 259.790466,294.609955 267.814758,291.512146 
	C267.902832,292.946594 268.037781,294.190491 268.046326,295.435242 
	C268.112396,305.051788 267.068115,306.462219 257.533539,307.659485 
	C253.610687,308.152069 249.507095,308.191925 245.599503,307.636749 
	C233.214340,305.877289 226.073853,298.127533 225.420959,284.296173 
	C225.100906,277.515625 227.121399,270.624634 228.250366,263.445129 
z"/>
<path fill="#FF8D47" opacity="1.000000" stroke="none" 
	d="
M186.308350,282.018311 
	C190.148697,281.620300 193.578400,281.276031 196.926865,280.939941 
	C199.178146,289.800995 195.194229,296.164093 187.276962,296.844849 
	C183.826492,297.141510 180.249481,296.743195 179.146423,292.786957 
	C178.037109,288.808197 178.952728,285.154083 183.102936,283.103607 
	C183.988281,282.666199 184.963745,282.411133 186.308350,282.018311 
z"/>
</svg>