<svg width="709.937451171875px" height="200.8000061035156px" xmlns="http://www.w3.org/2000/svg" viewBox="-104.96872558593748 -25.400003051757807 709.937451171875 200.8000061035156" style="background: rgba(242, 237, 219, 0);" preserveAspectRatio="xMidYMid"><defs><filter id="editing-vintage" x="-100%" y="-100%" width="300%" height="300%"><feConvolveMatrix in="SourceGraphic" result="extrude" order="10,10" divisor="1" kernelMatrix="1,0,0,0,0,0,0,0,0,0,0,1,0,0,0,0,0,0,0,0,0,0,1,0,0,0,0,0,0,0,0,0,0,1,0,0,0,0,0,0,0,0,0,0,1,0,0,0,0,0,0,0,0,0,0,1,0,0,0,0,0,0,0,0,0,0,1,0,0,0,0,0,0,0,0,0,0,1,0,0,0,0,0,0,0,0,0,0,1,0,0,0,0,0,0,0,0,0,0,1"> </feConvolveMatrix><feFlood flood-color="#a20000" result="flood-extrude"></feFlood><feComposite operator="in" in="flood-extrude" in2="extrude" result="extrude-color"></feComposite><feOffset dx="5" dy="5" in="extrude-color" result="extrude-offset"></feOffset><feColorMatrix in="SourceGraphic" result="stroke" type="matrix" values="0 0 0 0 0 0 0 0 0 0 0 0 0 0 0 0 1 0 0 0 "></feColorMatrix><feColorMatrix in="SourceGraphic" result="fill" type="matrix" values="0 0 0 0 0 0 0 0 0 0 0 0 0 0 0 1 0 0 1 0 "></feColorMatrix><feConvolveMatrix in="stroke" result="inner-shadow" order="5,5" divisor="1" kernelMatrix="1 0 0 0 0 0 1 0 0 0 0 0 1 0 0 0 0 0 1 0 0 0 0 0 1 "></feConvolveMatrix><feOffset dx="1" dy="1" in="inner-shadow" result="offset"></feOffset><feComposite operator="in" in="offset" in2="SourceAlpha" result="comp"></feComposite><feFlood flood-color="#000" result="flood3"></feFlood><feComposite operator="in" in="flood3" in2="comp" result="comp2"></feComposite><feColorMatrix in="comp2" result="comp3" type="matrix" values="1 0 0 0 0 0 1 0 0 0 0 0 1 0 0 0 0 0 0.5 0 "></feColorMatrix><feFlood flood-color="#ff5c00" result="flood1"></feFlood><feComposite operator="in" in="flood1" in2="fill" result="fill2"></feComposite><feFlood flood-color="#fff" result="flood2"></feFlood><feComposite operator="in" in="flood2" in2="stroke" result="stroke2"></feComposite><feMerge result="obj"><feMergeNode in="extrude-offset"></feMergeNode><feMergeNode in="fill2"></feMergeNode><feMergeNode in="comp3"></feMergeNode></feMerge><feConvolveMatrix in="SourceAlpha" result="shadow" order="10,10" divisor="1" kernelMatrix="1,0,0,0,0,0,0,0,0,0,0,1,0,0,0,0,0,0,0,0,0,0,1,0,0,0,0,0,0,0,0,0,0,1,0,0,0,0,0,0,0,0,0,0,1,0,0,0,0,0,0,0,0,0,0,1,0,0,0,0,0,0,0,0,0,0,1,0,0,0,0,0,0,0,0,0,0,1,0,0,0,0,0,0,0,0,0,0,1,0,0,0,0,0,0,0,0,0,0,1"></feConvolveMatrix><feOffset dx="15" dy="15" in="shadow" result="shadow-offset"></feOffset><feFlood flood-color="#444444" result="flood-shadow"></feFlood><feComposite operator="in" in="flood-shadow" in2="shadow-offset" result="shadow-color"></feComposite><feMerge><feMergeNode in="shadow-color"></feMergeNode><feMergeNode in="obj"></feMergeNode></feMerge></filter></defs><g transform="translate(-10,-10)"><g filter="url(#editing-vintage)"><g transform="translate(-3.765031158924103, 124.64498901367188)"><path d="M0.80-0.57L0.80-0.57L15.16-75.24L15.16-75.24Q28.61-76.38 37.28-76.38L37.28-76.38L37.28-76.38Q45.94-76.38 51.53-75.64L51.53-75.64L51.53-75.64Q57.11-74.90 60.88-72.96L60.88-72.96L60.88-72.96Q68.40-69.31 68.40-59.28L68.40-59.28L68.40-59.28Q68.40-53.47 63.38-48.56L63.38-48.56L63.38-48.56Q58.71-44.12 53.58-43.09L53.58-43.09L53.58-43.09Q59.05-42.18 62.93-38.08L62.93-38.08L62.93-38.08Q67.03-33.74 67.03-27.02L67.03-27.02L67.03-27.02Q67.03-14.02 57.34-6.44L57.34-6.44L57.34-6.44Q47.65 1.14 28.61 1.14L28.61 1.14L28.61 1.14Q15.50 1.14 0.80-0.57ZM31.81-36.71L26.11-7.18L26.11-7.18Q27.13-7.07 27.36-7.07L27.36-7.07L28.39-7.07L28.39-7.07Q37.73-7.07 41.72-13.22L41.72-13.22L41.72-13.22Q44.69-18.01 44.69-26.79L44.69-26.79L44.69-26.79Q44.69-31.46 41.67-33.97L41.67-33.97L41.67-33.97Q38.65-36.48 31.81-36.71L31.81-36.71ZM49.13-59.17L49.13-59.17L49.13-59.17Q49.13-68.63 40.01-68.63L40.01-68.63L38.99-68.63L38.99-68.63Q38.53-68.63 37.85-68.51L37.85-68.51L33.29-44.46L34.43-44.46L34.43-44.46Q49.13-44.80 49.13-59.17ZM120.73-19.27L120.73-19.27L120.73-19.27Q123.58-17.33 123.58-13.05L123.58-13.05L123.58-13.05Q123.58-8.78 121.41-6.04L121.41-6.04L121.41-6.04Q119.24-3.31 115.71-1.48L115.71-1.48L115.71-1.48Q108.41 2.28 100.55 2.28L100.55 2.28L100.55 2.28Q92.68 2.28 88.07 0.57L88.07 0.57L88.07 0.57Q83.45-1.14 80.37-4.33L80.37-4.33L80.37-4.33Q74.33-10.37 74.33-21.43L74.33-21.43L74.33-21.43Q74.33-38.65 83.68-49.13L83.68-49.13L83.68-49.13Q93.71-60.42 111.15-60.42L111.15-60.42L111.15-60.42Q121.98-60.42 127.34-55.86L127.34-55.86L127.34-55.86Q131.33-52.44 131.33-46.85L131.33-46.85L131.33-46.85Q131.33-26.79 96.67-26.79L96.67-26.79L96.67-26.79Q96.22-23.83 96.22-21.32L96.22-21.32L96.22-21.32Q96.22-16.07 98.55-14.08L98.55-14.08L98.55-14.08Q100.89-12.08 105.22-12.08L105.22-12.08L105.22-12.08Q109.55-12.08 114.17-14.08L114.17-14.08L114.17-14.08Q118.79-16.07 120.73-19.27ZM97.47-31.69L97.47-31.69L97.47-31.69Q105.56-31.69 110.24-36.71L110.24-36.71L110.24-36.71Q114.91-41.50 114.91-49.13L114.91-49.13L114.91-49.13Q114.91-51.76 113.94-53.18L113.94-53.18L113.94-53.18Q112.97-54.61 111.04-54.61L111.04-54.61L111.04-54.61Q109.10-54.61 107.45-53.87L107.45-53.87L107.45-53.87Q105.79-53.12 104.08-50.62L104.08-50.62L104.08-50.62Q99.86-44.92 97.47-31.69ZM140.16-3.42L140.16-3.42L140.16-3.42Q137.48-6.38 136.29-11.06L136.29-11.06L136.29-11.06Q135.09-15.73 135.09-23.37L135.09-23.37L135.09-23.37Q135.09-31.01 137.71-37.96L137.71-37.96L137.71-37.96Q140.33-44.92 145.12-49.93L145.12-49.93L145.12-49.93Q154.93-60.42 171.11-60.42L171.11-60.42L171.11-60.42Q176.93-60.42 181.15-58.48L181.15-58.48L200.64-60.42L192.20-15.96L192.20-15.96Q191.86-14.59 191.86-12.08L191.86-12.08L191.86-12.08Q191.86-9.58 193.40-7.98L193.40-7.98L193.40-7.98Q194.94-6.38 197.22-6.16L197.22-6.16L197.22-6.16Q196.08-2.28 191.92 0L191.92 0L191.92 0Q187.76 2.28 183.08 2.28L183.08 2.28L183.08 2.28Q178.41 2.28 175.28 0.51L175.28 0.51L175.28 0.51Q172.14-1.25 171.23-4.22L171.23-4.22L171.23-4.22Q169.40-1.37 165.53 0.46L165.53 0.46L165.53 0.46Q161.65 2.28 156.47 2.28L156.47 2.28L156.47 2.28Q151.28 2.28 147.06 0.91L147.06 0.91L147.06 0.91Q142.84-0.46 140.16-3.42ZM164.22-49.70L164.22-49.70L164.22-49.70Q162.91-47.65 161.77-44.18L161.77-44.18L161.77-44.18Q160.63-40.70 158.75-31.41L158.75-31.41L158.75-31.41Q156.86-22.12 156.86-15.50L156.86-15.50L156.86-15.50Q156.86-8.89 157.89-6.95L157.89-6.95L157.89-6.95Q158.92-5.02 160.74-5.02L160.74-5.02L160.74-5.02Q164.39-5.02 167.07-8.49L167.07-8.49L167.07-8.49Q169.75-11.97 170.77-18.13L170.77-18.13L176.81-51.53L176.81-51.53Q174.42-53.58 171.63-53.58L171.63-53.58L171.63-53.58Q168.83-53.58 167.18-52.67L167.18-52.67L167.18-52.67Q165.53-51.76 164.22-49.70ZM248.18-56.20L248.18-56.20L248.18-56.20Q251.94-60.42 258.44-60.42L258.44-60.42L258.44-60.42Q262.43-60.42 265.51-58.25L265.51-58.25L265.51-58.25Q268.58-56.09 268.58-52.04L268.58-52.04L268.58-52.04Q268.58-47.99 267.33-43.66L267.33-43.66L267.33-43.66Q266.08-39.33 264.14-34.88L264.14-34.88L264.14-34.88Q260.26-26.22 254.90-19.04L254.90-19.04L254.90-19.04Q247.38-8.66 240.14-3.19L240.14-3.19L240.14-3.19Q232.90 2.28 225.04 2.28L225.04 2.28L225.04 2.28Q218.65 2.28 214.78 0.80L214.78 0.80L214.78 0.80Q214.09-23.14 213.24-31.69L213.24-31.69L213.24-31.69Q212.38-40.24 211.70-44.92L211.70-44.92L211.70-44.92Q210.56-54.04 207.14-56.20L207.14-56.20L207.14-56.20Q209.76-58.48 212.33-59.45L212.33-59.45L212.33-59.45Q214.89-60.42 220.19-60.42L220.19-60.42L220.19-60.42Q225.49-60.42 229.25-56.26L229.25-56.26L229.25-56.26Q233.02-52.10 233.76-44.75L233.76-44.75L233.76-44.75Q234.50-37.39 234.50-28.50L234.50-28.50L234.50-28.50Q234.50-19.61 233.81-8.89L233.81-8.89L233.81-8.89Q237.35-11.40 241.11-19.04L241.11-19.04L241.11-19.04Q246.24-29.64 248.06-42.41L248.06-42.41L248.06-42.41Q248.63-46.28 248.63-50.39L248.63-50.39L248.63-50.39Q248.63-54.49 248.18-56.20ZM317.83-19.27L317.83-19.27L317.83-19.27Q320.68-17.33 320.68-13.05L320.68-13.05L320.68-13.05Q320.68-8.78 318.52-6.04L318.52-6.04L318.52-6.04Q316.35-3.31 312.82-1.48L312.82-1.48L312.82-1.48Q305.52 2.28 297.65 2.28L297.65 2.28L297.65 2.28Q289.79 2.28 285.17 0.57L285.17 0.57L285.17 0.57Q280.55-1.14 277.48-4.33L277.48-4.33L277.48-4.33Q271.43-10.37 271.43-21.43L271.43-21.43L271.43-21.43Q271.43-38.65 280.78-49.13L280.78-49.13L280.78-49.13Q290.81-60.42 308.26-60.42L308.26-60.42L308.26-60.42Q319.09-60.42 324.44-55.86L324.44-55.86L324.44-55.86Q328.43-52.44 328.43-46.85L328.43-46.85L328.43-46.85Q328.43-26.79 293.78-26.79L293.78-26.79L293.78-26.79Q293.32-23.83 293.32-21.32L293.32-21.32L293.32-21.32Q293.32-16.07 295.66-14.08L295.66-14.08L295.66-14.08Q298.00-12.08 302.33-12.08L302.33-12.08L302.33-12.08Q306.66-12.08 311.28-14.08L311.28-14.08L311.28-14.08Q315.89-16.07 317.83-19.27ZM294.58-31.69L294.58-31.69L294.58-31.69Q302.67-31.69 307.34-36.71L307.34-36.71L307.34-36.71Q312.02-41.50 312.02-49.13L312.02-49.13L312.02-49.13Q312.02-51.76 311.05-53.18L311.05-53.18L311.05-53.18Q310.08-54.61 308.14-54.61L308.14-54.61L308.14-54.61Q306.20-54.61 304.55-53.87L304.55-53.87L304.55-53.87Q302.90-53.12 301.19-50.62L301.19-50.62L301.19-50.62Q296.97-44.92 294.58-31.69ZM366.40-40.01L366.40-40.01L366.40-40.01Q367.99-44.23 367.99-47.88L367.99-47.88L367.99-47.88Q367.99-54.61 362.52-54.61L362.52-54.61L362.52-54.61Q359.67-54.61 357.33-52.04L357.33-52.04L357.33-52.04Q355.00-49.48 355.00-46.28L355.00-46.28L355.00-46.28Q355.00-44.00 356.82-42.18L356.82-42.18L356.82-42.18Q359.44-39.67 366.17-35.57L366.17-35.57L366.17-35.57Q372.89-31.46 375.46-28.10L375.46-28.10L375.46-28.10Q378.02-24.74 378.02-20.12L378.02-20.12L378.02-20.12Q378.02-15.50 375.80-11.29L375.80-11.29L375.80-11.29Q373.58-7.07 369.59-4.10L369.59-4.10L369.59-4.10Q361.04 2.28 347.36 2.28L347.36 2.28L347.36 2.28Q339.95 2.28 334.25-1.60L334.25-1.60L334.25-1.60Q328.55-5.36 328.55-9.80L328.55-9.80L328.55-9.80Q328.55-14.25 331.80-16.87L331.80-16.87L331.80-16.87Q335.05-19.49 339.83-19.49L339.83-19.49L339.83-19.49Q344.62-19.49 347.59-17.67L347.59-17.67L347.59-17.67Q346.10-13.91 346.10-11.40L346.10-11.40L346.10-11.40Q346.10-3.88 352.49-3.88L352.49-3.88L352.49-3.88Q355.22-3.88 357.05-5.59L357.05-5.59L357.05-5.59Q358.87-7.30 358.87-10.26L358.87-10.26L358.87-10.26Q358.87-16.07 349.07-22.23L349.07-22.23L349.07-22.23Q341.09-27.47 339.26-29.53L339.26-29.53L339.26-29.53Q336.19-33.17 336.19-37.73L336.19-37.73L336.19-37.73Q336.19-42.29 338.35-46.63L338.35-46.63L338.35-46.63Q340.52-50.96 344.51-54.04L344.51-54.04L344.51-54.04Q352.83-60.42 367.31-60.42L367.31-60.42L367.31-60.42Q374.72-60.42 379.11-57.46L379.11-57.46L379.11-57.46Q383.50-54.49 383.50-49.48L383.50-49.48L383.50-49.48Q383.50-44.46 380.48-41.61L380.48-41.61L380.48-41.61Q377.45-38.76 371.98-38.76L371.98-38.76L371.98-38.76Q368.22-38.76 366.40-40.01ZM389.42-27.82L389.42-27.82L389.42-27.82Q389.42-49.36 400.60-62.93L400.60-62.93L400.60-62.93Q412.45-77.63 433.09-77.63L433.09-77.63L433.09-77.63Q448.02-77.63 455.54-70.39L455.54-70.39L455.54-70.39Q463.07-63.16 463.07-47.88L463.07-47.88L463.07-47.88Q463.07-24.62 451.21-11.06L451.21-11.06L451.21-11.06Q439.47 2.28 419.75 2.28L419.75 2.28L419.75 2.28Q404.36 2.28 396.89-5.42L396.89-5.42L396.89-5.42Q389.42-13.11 389.42-27.82ZM419.41-51.41L419.41-51.41L419.41-51.41Q414.28-30.89 414.28-14.71L414.28-14.71L414.28-14.71Q414.28-10.83 415.59-8.32L415.59-8.32L415.59-8.32Q416.90-5.81 420.38-5.81L420.38-5.81L420.38-5.81Q423.85-5.81 426.02-7.47L426.02-7.47L426.02-7.47Q428.18-9.12 429.89-12.88L429.89-12.88L429.89-12.88Q432.63-19.04 435.19-32.09L435.19-32.09L435.19-32.09Q437.76-45.14 437.99-50.56L437.99-50.56L437.99-50.56Q438.22-55.97 438.22-60.08L438.22-60.08L438.22-60.08Q438.22-64.18 436.96-66.80L436.96-66.80L436.96-66.80Q435.71-69.43 432.35-69.43L432.35-69.43L432.35-69.43Q428.98-69.43 426.70-67.37L426.70-67.37L426.70-67.37Q422.48-63.50 419.41-51.41ZM454.29 15.73L454.29 15.73L454.29 15.73Q460.10 15.05 463.75 7.52L463.75 7.52L463.75 7.52Q467.51-0.11 470.93-17.67L470.93-17.67L481.99-75.24L506.73-75.24L495.67-17.67L495.67-17.67Q491.45 4.67 484.50 13.45L484.50 13.45L484.50 13.45Q480.85 18.01 476.24 19.84L476.24 19.84L476.24 19.84Q471.62 21.66 466.60 21.66L466.60 21.66L466.60 21.66Q461.59 21.66 458.34 19.84L458.34 19.84L458.34 19.84Q455.09 18.01 454.29 15.73Z" fill="#f00" stroke="#0f0" stroke-width="1.8"></path></g></g><g><g transform="translate(-3.722713053226471, 124.64500045776367)"><path d="M0.80-0.57L0.80-0.57L15.16-75.24L15.16-75.24Q28.61-76.38 37.28-76.38L37.28-76.38L37.28-76.38Q45.94-76.38 51.53-75.64L51.53-75.64L51.53-75.64Q57.11-74.90 60.88-72.96L60.88-72.96L60.88-72.96Q68.40-69.31 68.40-59.28L68.40-59.28L68.40-59.28Q68.40-53.47 63.38-48.56L63.38-48.56L63.38-48.56Q58.71-44.12 53.58-43.09L53.58-43.09L53.58-43.09Q59.05-42.18 62.93-38.08L62.93-38.08L62.93-38.08Q67.03-33.74 67.03-27.02L67.03-27.02L67.03-27.02Q67.03-14.02 57.34-6.44L57.34-6.44L57.34-6.44Q47.65 1.14 28.61 1.14L28.61 1.14L28.61 1.14Q15.50 1.14 0.80-0.57ZM31.81-36.71L26.11-7.18L26.11-7.18Q27.13-7.07 27.36-7.07L27.36-7.07L28.39-7.07L28.39-7.07Q37.73-7.07 41.72-13.22L41.72-13.22L41.72-13.22Q44.69-18.01 44.69-26.79L44.69-26.79L44.69-26.79Q44.69-31.46 41.67-33.97L41.67-33.97L41.67-33.97Q38.65-36.48 31.81-36.71L31.81-36.71ZM49.13-59.17L49.13-59.17L49.13-59.17Q49.13-68.63 40.01-68.63L40.01-68.63L38.99-68.63L38.99-68.63Q38.53-68.63 37.85-68.51L37.85-68.51L33.29-44.46L34.43-44.46L34.43-44.46Q49.13-44.80 49.13-59.17ZM120.73-19.27L120.73-19.27L120.73-19.27Q123.58-17.33 123.58-13.05L123.58-13.05L123.58-13.05Q123.58-8.78 121.41-6.04L121.41-6.04L121.41-6.04Q119.24-3.31 115.71-1.48L115.71-1.48L115.71-1.48Q108.41 2.28 100.55 2.28L100.55 2.28L100.55 2.28Q92.68 2.28 88.07 0.57L88.07 0.57L88.07 0.57Q83.45-1.14 80.37-4.33L80.37-4.33L80.37-4.33Q74.33-10.37 74.33-21.43L74.33-21.43L74.33-21.43Q74.33-38.65 83.68-49.13L83.68-49.13L83.68-49.13Q93.71-60.42 111.15-60.42L111.15-60.42L111.15-60.42Q121.98-60.42 127.34-55.86L127.34-55.86L127.34-55.86Q131.33-52.44 131.33-46.85L131.33-46.85L131.33-46.85Q131.33-26.79 96.67-26.79L96.67-26.79L96.67-26.79Q96.22-23.83 96.22-21.32L96.22-21.32L96.22-21.32Q96.22-16.07 98.55-14.08L98.55-14.08L98.55-14.08Q100.89-12.08 105.22-12.08L105.22-12.08L105.22-12.08Q109.55-12.08 114.17-14.08L114.17-14.08L114.17-14.08Q118.79-16.07 120.73-19.27ZM97.47-31.69L97.47-31.69L97.47-31.69Q105.56-31.69 110.24-36.71L110.24-36.71L110.24-36.71Q114.91-41.50 114.91-49.13L114.91-49.13L114.91-49.13Q114.91-51.76 113.94-53.18L113.94-53.18L113.94-53.18Q112.97-54.61 111.04-54.61L111.04-54.61L111.04-54.61Q109.10-54.61 107.45-53.87L107.45-53.87L107.45-53.87Q105.79-53.12 104.08-50.62L104.08-50.62L104.08-50.62Q99.86-44.92 97.47-31.69ZM140.16-3.42L140.16-3.42L140.16-3.42Q137.48-6.38 136.29-11.06L136.29-11.06L136.29-11.06Q135.09-15.73 135.09-23.37L135.09-23.37L135.09-23.37Q135.09-31.01 137.71-37.96L137.71-37.96L137.71-37.96Q140.33-44.92 145.12-49.93L145.12-49.93L145.12-49.93Q154.93-60.42 171.11-60.42L171.11-60.42L171.11-60.42Q176.93-60.42 181.15-58.48L181.15-58.48L200.64-60.42L192.20-15.96L192.20-15.96Q191.86-14.59 191.86-12.08L191.86-12.08L191.86-12.08Q191.86-9.58 193.40-7.98L193.40-7.98L193.40-7.98Q194.94-6.38 197.22-6.16L197.22-6.16L197.22-6.16Q196.08-2.28 191.92 0L191.92 0L191.92 0Q187.76 2.28 183.08 2.28L183.08 2.28L183.08 2.28Q178.41 2.28 175.28 0.51L175.28 0.51L175.28 0.51Q172.14-1.25 171.23-4.22L171.23-4.22L171.23-4.22Q169.40-1.37 165.53 0.46L165.53 0.46L165.53 0.46Q161.65 2.28 156.47 2.28L156.47 2.28L156.47 2.28Q151.28 2.28 147.06 0.91L147.06 0.91L147.06 0.91Q142.84-0.46 140.16-3.42ZM164.22-49.70L164.22-49.70L164.22-49.70Q162.91-47.65 161.77-44.18L161.77-44.18L161.77-44.18Q160.63-40.70 158.75-31.41L158.75-31.41L158.75-31.41Q156.86-22.12 156.86-15.50L156.86-15.50L156.86-15.50Q156.86-8.89 157.89-6.95L157.89-6.95L157.89-6.95Q158.92-5.02 160.74-5.02L160.74-5.02L160.74-5.02Q164.39-5.02 167.07-8.49L167.07-8.49L167.07-8.49Q169.75-11.97 170.77-18.13L170.77-18.13L176.81-51.53L176.81-51.53Q174.42-53.58 171.63-53.58L171.63-53.58L171.63-53.58Q168.83-53.58 167.18-52.67L167.18-52.67L167.18-52.67Q165.53-51.76 164.22-49.70ZM248.18-56.20L248.18-56.20L248.18-56.20Q251.94-60.42 258.44-60.42L258.44-60.42L258.44-60.42Q262.43-60.42 265.51-58.25L265.51-58.25L265.51-58.25Q268.58-56.09 268.58-52.04L268.58-52.04L268.58-52.04Q268.58-47.99 267.33-43.66L267.33-43.66L267.33-43.66Q266.08-39.33 264.14-34.88L264.14-34.88L264.14-34.88Q260.26-26.22 254.90-19.04L254.90-19.04L254.90-19.04Q247.38-8.66 240.14-3.19L240.14-3.19L240.14-3.19Q232.90 2.28 225.04 2.28L225.04 2.28L225.04 2.28Q218.65 2.28 214.78 0.80L214.78 0.80L214.78 0.80Q214.09-23.14 213.24-31.69L213.24-31.69L213.24-31.69Q212.38-40.24 211.70-44.92L211.70-44.92L211.70-44.92Q210.56-54.04 207.14-56.20L207.14-56.20L207.14-56.20Q209.76-58.48 212.33-59.45L212.33-59.45L212.33-59.45Q214.89-60.42 220.19-60.42L220.19-60.42L220.19-60.42Q225.49-60.42 229.25-56.26L229.25-56.26L229.25-56.26Q233.02-52.10 233.76-44.75L233.76-44.75L233.76-44.75Q234.50-37.39 234.50-28.50L234.50-28.50L234.50-28.50Q234.50-19.61 233.81-8.89L233.81-8.89L233.81-8.89Q237.35-11.40 241.11-19.04L241.11-19.04L241.11-19.04Q246.24-29.64 248.06-42.41L248.06-42.41L248.06-42.41Q248.63-46.28 248.63-50.39L248.63-50.39L248.63-50.39Q248.63-54.49 248.18-56.20ZM317.83-19.27L317.83-19.27L317.83-19.27Q320.68-17.33 320.68-13.05L320.68-13.05L320.68-13.05Q320.68-8.78 318.52-6.04L318.52-6.04L318.52-6.04Q316.35-3.31 312.82-1.48L312.82-1.48L312.82-1.48Q305.52 2.28 297.65 2.28L297.65 2.28L297.65 2.28Q289.79 2.28 285.17 0.57L285.17 0.57L285.17 0.57Q280.55-1.14 277.48-4.33L277.48-4.33L277.48-4.33Q271.43-10.37 271.43-21.43L271.43-21.43L271.43-21.43Q271.43-38.65 280.78-49.13L280.78-49.13L280.78-49.13Q290.81-60.42 308.26-60.42L308.26-60.42L308.26-60.42Q319.09-60.42 324.44-55.86L324.44-55.86L324.44-55.86Q328.43-52.44 328.43-46.85L328.43-46.85L328.43-46.85Q328.43-26.79 293.78-26.79L293.78-26.79L293.78-26.79Q293.32-23.83 293.32-21.32L293.32-21.32L293.32-21.32Q293.32-16.07 295.66-14.08L295.66-14.08L295.66-14.08Q298.00-12.08 302.33-12.08L302.33-12.08L302.33-12.08Q306.66-12.08 311.28-14.08L311.28-14.08L311.28-14.08Q315.89-16.07 317.83-19.27ZM294.58-31.69L294.58-31.69L294.58-31.69Q302.67-31.69 307.34-36.71L307.34-36.71L307.34-36.71Q312.02-41.50 312.02-49.13L312.02-49.13L312.02-49.13Q312.02-51.76 311.05-53.18L311.05-53.18L311.05-53.18Q310.08-54.61 308.14-54.61L308.14-54.61L308.14-54.61Q306.20-54.61 304.55-53.87L304.55-53.87L304.55-53.87Q302.90-53.12 301.19-50.62L301.19-50.62L301.19-50.62Q296.97-44.92 294.58-31.69ZM366.40-40.01L366.40-40.01L366.40-40.01Q367.99-44.23 367.99-47.88L367.99-47.88L367.99-47.88Q367.99-54.61 362.52-54.61L362.52-54.61L362.52-54.61Q359.67-54.61 357.33-52.04L357.33-52.04L357.33-52.04Q355.00-49.48 355.00-46.28L355.00-46.28L355.00-46.28Q355.00-44.00 356.82-42.18L356.82-42.18L356.82-42.18Q359.44-39.67 366.17-35.57L366.17-35.57L366.17-35.57Q372.89-31.46 375.46-28.10L375.46-28.10L375.46-28.10Q378.02-24.74 378.02-20.12L378.02-20.12L378.02-20.12Q378.02-15.50 375.80-11.29L375.80-11.29L375.80-11.29Q373.58-7.07 369.59-4.10L369.59-4.10L369.59-4.10Q361.04 2.28 347.36 2.28L347.36 2.28L347.36 2.28Q339.95 2.28 334.25-1.60L334.25-1.60L334.25-1.60Q328.55-5.36 328.55-9.80L328.55-9.80L328.55-9.80Q328.55-14.25 331.80-16.87L331.80-16.87L331.80-16.87Q335.05-19.49 339.83-19.49L339.83-19.49L339.83-19.49Q344.62-19.49 347.59-17.67L347.59-17.67L347.59-17.67Q346.10-13.91 346.10-11.40L346.10-11.40L346.10-11.40Q346.10-3.88 352.49-3.88L352.49-3.88L352.49-3.88Q355.22-3.88 357.05-5.59L357.05-5.59L357.05-5.59Q358.87-7.30 358.87-10.26L358.87-10.26L358.87-10.26Q358.87-16.07 349.07-22.23L349.07-22.23L349.07-22.23Q341.09-27.47 339.26-29.53L339.26-29.53L339.26-29.53Q336.19-33.17 336.19-37.73L336.19-37.73L336.19-37.73Q336.19-42.29 338.35-46.63L338.35-46.63L338.35-46.63Q340.52-50.96 344.51-54.04L344.51-54.04L344.51-54.04Q352.83-60.42 367.31-60.42L367.31-60.42L367.31-60.42Q374.72-60.42 379.11-57.46L379.11-57.46L379.11-57.46Q383.50-54.49 383.50-49.48L383.50-49.48L383.50-49.48Q383.50-44.46 380.48-41.61L380.48-41.61L380.48-41.61Q377.45-38.76 371.98-38.76L371.98-38.76L371.98-38.76Q368.22-38.76 366.40-40.01ZM389.42-27.82L389.42-27.82L389.42-27.82Q389.42-49.36 400.60-62.93L400.60-62.93L400.60-62.93Q412.45-77.63 433.09-77.63L433.09-77.63L433.09-77.63Q448.02-77.63 455.54-70.39L455.54-70.39L455.54-70.39Q463.07-63.16 463.07-47.88L463.07-47.88L463.07-47.88Q463.07-24.62 451.21-11.06L451.21-11.06L451.21-11.06Q439.47 2.28 419.75 2.28L419.75 2.28L419.75 2.28Q404.36 2.28 396.89-5.42L396.89-5.42L396.89-5.42Q389.42-13.11 389.42-27.82ZM419.41-51.41L419.41-51.41L419.41-51.41Q414.28-30.89 414.28-14.71L414.28-14.71L414.28-14.71Q414.28-10.83 415.59-8.32L415.59-8.32L415.59-8.32Q416.90-5.81 420.38-5.81L420.38-5.81L420.38-5.81Q423.85-5.81 426.02-7.47L426.02-7.47L426.02-7.47Q428.18-9.12 429.89-12.88L429.89-12.88L429.89-12.88Q432.63-19.04 435.19-32.09L435.19-32.09L435.19-32.09Q437.76-45.14 437.99-50.56L437.99-50.56L437.99-50.56Q438.22-55.97 438.22-60.08L438.22-60.08L438.22-60.08Q438.22-64.18 436.96-66.80L436.96-66.80L436.96-66.80Q435.71-69.43 432.35-69.43L432.35-69.43L432.35-69.43Q428.98-69.43 426.70-67.37L426.70-67.37L426.70-67.37Q422.48-63.50 419.41-51.41ZM454.29 15.73L454.29 15.73L454.29 15.73Q460.10 15.05 463.75 7.52L463.75 7.52L463.75 7.52Q467.51-0.11 470.93-17.67L470.93-17.67L481.99-75.24L506.73-75.24L495.67-17.67L495.67-17.67Q491.45 4.67 484.50 13.45L484.50 13.45L484.50 13.45Q480.85 18.01 476.24 19.84L476.24 19.84L476.24 19.84Q471.62 21.66 466.60 21.66L466.60 21.66L466.60 21.66Q461.59 21.66 458.34 19.84L458.34 19.84L458.34 19.84Q455.09 18.01 454.29 15.73Z" fill="none" stroke="#ffffff" stroke-width="2.1"></path></g></g></g><style>text {
  font-size: 64px;
  font-family: Arial Black;
  dominant-baseline: central;
  text-anchor: middle;
}</style></svg>